<svg xmlns="http://www.w3.org/2000/svg" viewBox="0 0 940 650" role="img" aria-labelledby="title desc">
  <title id="title">Child Missions screen screenshot</title>
  <desc id="desc">A screenshot-style child Missions screen with available, in progress, waiting for check, and needs more work Mission cards.</desc>
  <rect width="940" height="650" fill="#f8fafc"/>
  <rect x="92" y="58" width="756" height="534" rx="38" fill="#fff" stroke="#ddd6fe" stroke-width="8"/>
  <rect x="92" y="58" width="756" height="92" rx="38" fill="#7c3aed"/>
  <rect x="92" y="112" width="756" height="38" fill="#7c3aed"/>
  <text x="138" y="112" font-family="Arial, sans-serif" font-size="34" font-weight="900" fill="#fff">Jayden’s Missions</text>
  <rect x="648" y="84" width="140" height="38" rx="19" fill="#fff"/>
  <text x="676" y="109" font-family="Arial, sans-serif" font-size="17" font-weight="900" fill="#7c3aed">85 Credits</text>
  <text x="138" y="196" font-family="Arial, sans-serif" font-size="22" font-weight="900" fill="#0f172a">Available now</text>
  <rect x="138" y="222" width="306" height="154" rx="24" fill="#f5f3ff" stroke="#c4b5fd" stroke-width="4"/>
  <text x="166" y="264" font-family="Arial, sans-serif" font-size="24" font-weight="900" fill="#0f172a">Room Reset</text>
  <text x="166" y="294" font-family="Arial, sans-serif" font-size="16" font-weight="700" fill="#64748b">Put toys away and make your bed.</text>
  <rect x="166" y="320" width="96" height="34" rx="17" fill="#dcfce7"/>
  <text x="188" y="343" font-family="Arial, sans-serif" font-size="15" font-weight="900" fill="#047857">+30</text>
  <rect x="276" y="320" width="118" height="34" rx="17" fill="#fff"/>
  <text x="300" y="343" font-family="Arial, sans-serif" font-size="15" font-weight="900" fill="#7c3aed">Start</text>
  <rect x="496" y="222" width="306" height="154" rx="24" fill="#ecfdf5" stroke="#86efac" stroke-width="4"/>
  <text x="524" y="264" font-family="Arial, sans-serif" font-size="24" font-weight="900" fill="#0f172a">Kitchen Helper</text>
  <text x="524" y="294" font-family="Arial, sans-serif" font-size="16" font-weight="700" fill="#64748b">Clear your plate after dinner.</text>
  <rect x="524" y="320" width="144" height="34" rx="17" fill="#bbf7d0"/>
  <text x="552" y="343" font-family="Arial, sans-serif" font-size="15" font-weight="900" fill="#166534">In Progress</text>
  <text x="138" y="424" font-family="Arial, sans-serif" font-size="22" font-weight="900" fill="#0f172a">Mission Checks</text>
  <rect x="138" y="450" width="306" height="92" rx="22" fill="#fffbeb" stroke="#fde68a" stroke-width="4"/>
  <circle cx="178" cy="496" r="21" fill="#fef3c7"/>
  <path d="M178 482v16l12 8" fill="none" stroke="#d97706" stroke-width="6" stroke-linecap="round"/>
  <text x="214" y="488" font-family="Arial, sans-serif" font-size="18" font-weight="900" fill="#0f172a">Waiting for Check</text>
  <text x="214" y="514" font-family="Arial, sans-serif" font-size="15" font-weight="800" fill="#b45309">Parent is reviewing</text>
  <rect x="496" y="450" width="306" height="92" rx="22" fill="#fff1f2" stroke="#fecdd3" stroke-width="4"/>
  <circle cx="536" cy="496" r="21" fill="#ffe4e6"/>
  <text x="529" y="505" font-family="Arial, sans-serif" font-size="28" font-weight="900" fill="#e11d48">!</text>
  <text x="572" y="488" font-family="Arial, sans-serif" font-size="18" font-weight="900" fill="#0f172a">Needs More Work</text>
  <text x="572" y="514" font-family="Arial, sans-serif" font-size="15" font-weight="800" fill="#be123c">Add a photo and resubmit</text>
</svg>
